<?xml version="1.0" standalone="no"?>
<!DOCTYPE svg PUBLIC "-//W3C//DTD SVG 20010904//EN"
 "http://www.w3.org/TR/2001/REC-SVG-20010904/DTD/svg10.dtd">
<svg version="1.0" xmlns="http://www.w3.org/2000/svg"
 width="1024.000000pt" height="1024.000000pt" viewBox="0 0 1024.000000 1024.000000"
 preserveAspectRatio="xMidYMid meet">

<g transform="translate(0.000000,1024.000000) scale(0.100000,-0.100000)"
fill="#000000" stroke="none">
<path d="M1915 6244 c-5 -2 -179 -44 -385 -92 l-375 -89 0 -419 1 -419 27 -88
c92 -297 301 -516 676 -707 l81 -42 98 52 c379 202 580 422 664 725 21 75 22
104 26 490 l3 410 -148 33 c-81 19 -258 60 -392 93 -241 58 -257 61 -276 53z
m335 -229 c151 -36 285 -67 298 -70 l22 -5 0 -309 c0 -394 -14 -473 -111 -639
-76 -128 -291 -310 -470 -397 l-56 -28 -59 33 c-139 79 -235 149 -325 239
-107 107 -163 192 -206 316 l-28 80 -3 353 c-2 193 0 352 5 353 4 0 143 33
308 74 165 40 311 72 325 70 14 -2 149 -34 300 -70z"/>
<path d="M2038 5483 l-228 -228 -105 105 -105 105 -55 -56 -56 -55 156 -154
c86 -85 161 -156 168 -158 6 -1 138 124 292 278 l280 280 -55 55 c-30 30 -57
55 -60 55 -3 0 -107 -102 -232 -227z"/>
<path d="M7430 5393 l0 -433 80 0 80 0 0 429 0 429 -80 4 -80 3 0 -432z"/>
<path d="M3070 5390 l0 -430 260 0 260 0 0 70 0 70 -175 0 -175 0 0 360 0 360
-85 0 -85 0 0 -430z"/>
<path d="M3710 5390 l0 -430 75 0 75 0 0 323 c0 177 4 315 8 307 5 -8 53 -154
108 -323 l99 -308 59 3 60 3 42 130 c23 72 70 213 103 315 l60 185 1 -317 0
-318 80 0 80 0 0 430 0 431 -111 -3 -112 -3 -100 -294 -100 -293 -101 296
-101 296 -112 0 -113 0 0 -430z"/>
<path d="M4760 5390 l0 -430 80 0 80 0 0 180 0 180 175 0 175 0 0 -180 0 -180
85 0 85 0 0 430 0 430 -85 0 -85 0 0 -180 0 -180 -175 0 -175 0 0 180 0 180
-80 0 -80 0 0 -430z"/>
<path d="M5900 5391 l0 -431 80 0 80 0 0 149 0 148 113 6 c131 7 169 16 233
60 71 48 104 116 104 216 -1 126 -41 200 -133 249 -51 27 -55 27 -264 30
l-213 3 0 -430z m375 285 c50 -21 70 -59 70 -131 0 -112 -45 -145 -195 -145
l-90 0 0 145 0 145 90 0 c56 0 104 -5 125 -14z"/>
<path d="M6640 5391 l0 -431 80 0 80 0 2 163 3 162 60 -1 59 0 94 -162 94
-162 89 0 c49 0 89 2 89 5 0 2 -47 79 -105 170 -87 139 -101 167 -87 172 45
16 100 65 124 110 72 133 29 300 -94 369 l-53 29 -217 3 -218 3 0 -430z m385
285 c42 -18 65 -61 65 -120 0 -108 -39 -136 -187 -136 l-103 0 0 135 0 135 95
0 c60 0 108 -5 130 -14z"/>
<path d="M7855 5557 l135 -264 0 -160 0 -160 75 -7 c42 -4 80 -4 86 -1 6 4 9
69 9 169 l-2 163 131 261 131 262 -87 0 -88 0 -60 -133 c-32 -72 -71 -158 -85
-190 l-26 -58 -89 190 -88 191 -89 0 -88 0 135 -263z"/>
<path d="M8617 5813 c-6 -11 -277 -840 -277 -848 0 -3 37 -5 82 -3 l83 3 30
102 30 103 152 0 152 0 32 -105 32 -105 85 0 c63 0 83 3 80 13 -3 6 -68 200
-144 430 l-139 417 -97 0 c-53 0 -99 -3 -101 -7z m156 -341 l54 -172 -108 0
c-60 0 -109 2 -109 4 0 2 14 50 31 107 16 57 39 135 50 172 11 38 22 67 24 65
2 -2 28 -81 58 -176z"/>
<path d="M5609 5111 c-21 -22 -29 -39 -29 -66 0 -51 44 -95 95 -95 51 0 95 44
95 95 0 51 -44 95 -95 95 -27 0 -44 -8 -66 -29z"/>
</g>
</svg>
